<?xml version="1.0" standalone="no"?>
<!DOCTYPE svg PUBLIC "-//W3C//DTD SVG 20010904//EN"
 "http://www.w3.org/TR/2001/REC-SVG-20010904/DTD/svg10.dtd">
<svg version="1.0" xmlns="http://www.w3.org/2000/svg"
 width="1920.000000pt" height="1920.000000pt" viewBox="0 0 1920.000000 1920.000000"
 preserveAspectRatio="xMidYMid meet">
<metadata>
Created by potrace 1.14, written by Peter Selinger 2001-2017
</metadata>
<g transform="translate(0.000000,1920.000000) scale(0.100000,-0.100000)"
fill="#000000" stroke="none">
<path d="M8670 15420 c-47 -9 -95 -22 -107 -28 -13 -7 -23 -11 -23 -9 0 3 -24
-8 -52 -24 -29 -16 -64 -33 -77 -39 -13 -6 -62 -50 -110 -98 -207 -210 -267
-489 -165 -764 148 -397 629 -579 1004 -380 246 131 393 382 385 659 -13 445
-417 768 -855 683z"/>
<path d="M6530 15410 c-411 -85 -723 -382 -830 -789 -19 -74 -25 -131 -25
-256 0 -172 14 -250 72 -395 58 -143 130 -251 241 -360 212 -208 477 -313 772
-305 160 4 250 23 390 82 301 127 533 399 617 721 36 141 38 352 3 507 -20 88
-79 227 -133 315 -99 161 -281 322 -451 400 -204 93 -450 123 -656 80z"/>
<path d="M10256 15059 c-124 -20 -215 -67 -306 -159 -62 -63 -130 -176 -130
-215 0 -9 -5 -25 -11 -36 -15 -29 -15 -174 1 -239 47 -200 214 -361 416 -403
178 -37 346 15 479 148 214 214 214 536 -1 750 -124 124 -286 180 -448 154z"/>
<path d="M11293 14359 c-303 -55 -421 -430 -203 -649 119 -119 295 -149 444
-73 155 79 241 259 202 427 -47 201 -243 331 -443 295z"/>
<path d="M8908 13705 c-2 -2 -43 -5 -93 -9 -49 -3 -101 -8 -115 -10 -14 -2
-47 -8 -75 -12 -62 -9 -64 -9 -161 -30 -56 -11 -209 -61 -288 -93 -458 -187
-735 -555 -840 -1116 -3 -17 -9 -66 -13 -110 -21 -257 10 -490 93 -712 40
-105 59 -140 283 -505 26 -42 71 -119 99 -168 14 -25 53 -95 87 -155 118 -208
298 -571 397 -800 21 -49 43 -99 48 -110 60 -129 217 -579 234 -672 2 -10 9
-38 16 -63 16 -59 38 -160 50 -235 6 -33 12 -71 14 -85 6 -33 16 -136 22 -235
12 -174 5 -741 -11 -980 -2 -33 -7 -109 -10 -170 -9 -164 -23 -370 -30 -435
-2 -19 -7 -78 -10 -130 -3 -52 -7 -111 -10 -130 -2 -19 -7 -64 -10 -100 -3
-36 -8 -83 -10 -105 -2 -22 -6 -69 -10 -105 -3 -36 -10 -107 -16 -159 -5 -52
-7 -96 -5 -99 3 -2 16 6 29 19 13 13 133 130 266 259 504 487 1068 1059 1250
1265 24 28 69 79 101 115 305 341 664 843 922 1290 205 355 306 574 416 906
35 107 97 314 107 361 2 10 16 65 30 123 15 58 28 114 30 125 1 11 7 40 13 65
6 25 13 59 16 75 3 17 11 56 16 88 6 32 13 70 15 85 2 15 8 58 15 96 6 37 13
98 16 135 3 36 7 72 9 79 17 50 25 496 11 637 -24 258 -89 490 -179 645 -18
30 -38 67 -46 81 -7 15 -39 61 -70 102 -250 334 -629 591 -1126 764 -164 56
-375 114 -500 137 -16 3 -41 8 -55 11 -25 5 -177 30 -240 39 -19 2 -66 8 -105
11 -38 4 -90 9 -115 11 -48 6 -457 13 -462 9z"/>
<path d="M11983 13589 c-85 -15 -165 -75 -205 -153 -13 -26 -23 -68 -26 -112
-4 -61 -1 -80 20 -126 81 -177 299 -228 446 -104 37 32 80 100 89 143 12 51 4
144 -16 188 -50 113 -185 185 -308 164z"/>
<path d="M11280 8757 c0 -35 -158 -326 -264 -487 -109 -165 -273 -389 -374
-510 -30 -36 -73 -87 -96 -115 -213 -257 -483 -538 -912 -950 -255 -244 -547
-537 -674 -676 -52 -57 -106 -115 -120 -130 -35 -38 -54 -60 -144 -169 -43
-52 -86 -104 -95 -115 -58 -70 -221 -309 -272 -399 -78 -135 -160 -319 -174
-386 -2 -8 -8 -35 -15 -59 -11 -42 -22 -102 -38 -201 -14 -89 -7 -470 11 -575
30 -178 43 -233 89 -375 99 -305 239 -542 438 -740 144 -145 228 -201 407
-276 80 -33 249 -89 298 -100 40 -8 61 -13 105 -23 25 -5 68 -13 95 -16 28 -4
64 -9 80 -12 130 -22 393 -21 615 2 238 25 538 113 767 226 103 51 297 167
313 188 3 4 27 25 55 46 199 159 354 382 458 660 26 70 82 264 91 319 3 16 10
52 16 80 9 49 13 76 26 181 3 28 7 61 10 75 7 44 18 311 17 435 0 129 -12 429
-18 467 -2 12 -7 57 -10 98 -3 41 -8 89 -9 105 -13 118 -18 154 -22 185 -6 44
-11 82 -20 145 -3 28 -8 59 -10 70 -3 11 -7 43 -10 70 -2 28 -7 56 -10 64 -2
8 -7 30 -10 50 -3 20 -9 59 -14 86 -6 28 -12 66 -15 86 -5 30 -99 497 -109
539 -2 8 -16 71 -31 140 -15 69 -28 132 -30 140 -2 8 -10 51 -19 95 -9 44 -21
96 -26 115 -5 19 -12 53 -16 75 -3 22 -8 43 -10 46 -2 3 -5 19 -8 35 -7 37
-58 286 -96 469 -16 77 -31 151 -34 165 -3 14 -10 50 -16 80 -7 30 -13 62 -15
70 -1 8 -5 26 -8 40 -5 21 -21 103 -43 215 -2 11 -8 40 -13 65 -34 161 -63
310 -68 340 -6 42 -22 75 -23 47z"/>
</g>
</svg>
